<?xml version="1.0" encoding="UTF-8" standalone="no"?>
<svg
   width="500"
   height="500"
   id="svg"
   preserveAspectRatio="none"
   viewBox="0 0 500 500"
   class="transition duration-300 ease-in-out delay-150"
   version="1.1"
   xmlns:xlink="http://www.w3.org/1999/xlink"
   xmlns="http://www.w3.org/2000/svg"
   xmlns:svg="http://www.w3.org/2000/svg">
  <defs
     id="defs13">
    <linearGradient
       id="linearGradient11128">
      <stop
         style="stop-color:#008ff5;stop-opacity:1"
         offset="0"
         id="stop11124" />
      <stop
         style="stop-color:#166ddf;stop-opacity:1"
         offset="0.5"
         id="stop11162" />
      <stop
         style="stop-color:#105bdc;stop-opacity:0.99607843"
         offset="1"
         id="stop11126" />
    </linearGradient>
    <linearGradient
       id="linearGradient10253">
      <stop
         style="stop-color:#59f1fe;stop-opacity:1"
         offset="0"
         id="stop10287" />
      <stop
         style="stop-color:#01e6fa;stop-opacity:1;"
         offset="0.36150411"
         id="stop10420" />
      <stop
         style="stop-color:#01aeed;stop-opacity:1"
         offset="1"
         id="stop10289" />
    </linearGradient>
    <linearGradient
       xlink:href="#linearGradient10253"
       id="linearGradient10255"
       x1="446.93527"
       y1="104.84512"
       x2="965.13525"
       y2="652.36267"
       gradientUnits="userSpaceOnUse"
       gradientTransform="translate(-496.7669,-52.261717)" />
    <linearGradient
       xlink:href="#linearGradient11128"
       id="linearGradient11130"
       x1="447.1102"
       y1="79.833412"
       x2="985.96295"
       y2="661.58972"
       gradientUnits="userSpaceOnUse"
       gradientTransform="translate(-496.7669,-52.261717)" />
  </defs>
  <path
     style="fill:url(#linearGradient10255);fill-opacity:1;stroke-width:1.1733"
     d="m 10.642902,0 c -11.23472301,50.160131 -22.568715,100.22198 16.703109,125.05664 39.271824,24.73651 129.049409,24.24558 158.478409,53.98828 29.42902,29.84089 -1.59012,90.11149 6.56251,124.66406 8.25205,34.55258 55.57725,43.38788 91.46868,65.96485 35.79205,22.57696 60.05042,58.79924 94.15228,80.00195 C 412.10976,470.8785 458.15435,487.65667 500,500 V 0 Z"
     id="path138" />
  <path
     style="fill:url(#linearGradient11130);fill-opacity:1;stroke-width:1.08109"
     d="m 86.422141,0 c -0.854548,20.542158 -0.219519,39.248044 3.041019,53.880861 4.145497,18.60428 12.45575,31.45752 29.13084,39.7539 7.9105,3.91568 18.82411,7.279339 30.53319,10.636719 12.21774,3.50325 24.40152,6.75094 37.25192,10.74414 25.30011,7.86188 51.43434,17.86786 65.90817,33.19532 14.65943,15.52527 18.62229,37.57325 21.45896,60.37304 2.8569,22.96242 4.52958,46.32566 12.78125,64.63282 8.20459,18.07945 22.49644,30.06718 38.2402,39.42382 15.75662,9.36429 33.02862,16.00719 47.70896,25.59571 6.77622,4.41092 12.97396,9.46475 18.71092,14.90429 6.77926,6.44663 12.78354,13.31825 18.49413,20.38282 10.20932,12.62997 19.69472,26.35654 29.63084,35.24609 8.41704,7.53046 17.48057,12.0392 27.29295,15.31055 9.09276,3.03491 18.47263,4.89284 27.87108,7.13086 1.7431,0.42358 3.72113,1.04019 5.52343,1.50781 V 0 Z"
     id="path138-1" />
</svg>
