<?xml version="1.0" encoding="UTF-8" standalone="no"?>
<svg
   id="visual"
   viewBox="0 0 506.29999 610.68243"
   width="506.29999"
   height="610.68243"
   version="1.1"
   preserveAspectRatio="none"
   xmlns="http://www.w3.org/2000/svg"
   xmlns:svg="http://www.w3.org/2000/svg">
  <defs
     id="defs9">
    <linearGradient
       id="grad1_0"
       x1="0"
       y1="0"
       x2="1"
       y2="1">
      <stop
         offset="30%"
         stop-color="#001220"
         stop-opacity="1"
         id="stop4" />
      <stop
         offset="70%"
         stop-color="#001220"
         stop-opacity="1"
         id="stop6" />
    </linearGradient>
  </defs>
  <defs
     id="defs16">
    <linearGradient
       id="grad2_0"
       x1="0"
       y1="0"
       x2="1"
       y2="1">
      <stop
         offset="30%"
         stop-color="#001220"
         stop-opacity="1"
         id="stop11" />
      <stop
         offset="70%"
         stop-color="#001220"
         stop-opacity="1"
         id="stop13" />
    </linearGradient>
  </defs>
  <g
     transform="matrix(1,0,0,1.1902677,0,610.68244)"
     id="g24"
     style="fill:#01e6fa;fill-opacity:1">
    <path
       d="m 0,-506.2 c 62.6,-8.4 125.3,-16.7 156.4,24.7 31.2,41.4 31,132.5 74,164.4 43,31.9 129.4,4.6 171.7,25 42.3,20.3 52.03737,96.38351 62.03737,152.98351 C 474.13737,-82.516486 484.5,-45.2 506.3,0 H 0 Z"
       fill="#fbae3c"
       id="path22"
       style="fill:#01e6fa;fill-opacity:1" />
  </g>
  <path
     d="m 0,48.719279 c 51.07332,-2.10931 102.14663,-4.1076 130.0747,41.40898 28.01346,45.516571 32.79624,138.659041 61.15133,178.402771 28.44049,39.74374 80.45329,26.08876 123.84,44.62845 43.38669,18.42865 78.06189,68.94095 96.16814,123.89388 18.10626,54.84193 19.64359,114.23551 21.18091,173.62908 H 0 Z"
     fill="#fbae3c"
     id="path22-6"
     style="fill:#256dee;fill-opacity:1;stroke-width:0.973733" />
</svg>
